<svg xmlns="http://www.w3.org/2000/svg" viewBox="0 0 512 512" width="100" height="100">
  <!-- Secure File Management System Icon -->
  <defs>
    <linearGradient id="gradient1" x1="0%" y1="0%" x2="100%" y2="100%">
      <stop offset="0%" stop-color="#00e5ff" stop-opacity="1" />
      <stop offset="100%" stop-color="#0066ff" stop-opacity="1" />
    </linearGradient>
    <filter id="glow" x="-20%" y="-20%" width="140%" height="140%">
      <feGaussianBlur stdDeviation="5" result="blur" />
      <feComposite in="SourceGraphic" in2="blur" operator="over" />
    </filter>
  </defs>
  
  <!-- Background Shield -->
  <path d="M256 16L32 96v144c0 124.1 88.1 234.6 224 260.9 135.9-26.3 224-136.8 224-260.9V96L256 16z" 
        fill="url(#gradient1)" filter="url(#glow)" />
  
  <!-- Folder Icon -->
  <path d="M128 120h256v256H128z" fill="#1e283c" />
  <path d="M368 152H144v192h224z" fill="#2a3950" />
  
  <!-- Document Lines -->
  <rect x="176" y="184" width="160" height="16" rx="8" fill="#00e5ff" opacity="0.7" />
  <rect x="176" y="216" width="160" height="16" rx="8" fill="#00e5ff" opacity="0.7" />
  <rect x="176" y="248" width="160" height="16" rx="8" fill="#00e5ff" opacity="0.7" />
  <rect x="176" y="280" width="80" height="16" rx="8" fill="#00e5ff" opacity="0.7" />
  
  <!-- Lock Icon -->
  <circle cx="256" cy="360" r="32" fill="#ff1a30" />
  <rect x="244" y="340" width="24" height="32" rx="12" fill="#ff1a30" />
  <circle cx="256" cy="360" r="8" fill="#ffffff" />
  <rect x="252" y="360" width="8" height="12" fill="#ffffff" />
</svg>